<?xml version="1.0" encoding="utf-8"?>
<svg xmlns="http://www.w3.org/2000/svg" xmlns:xlink="http://www.w3.org/1999/xlink" style="margin: auto; background: rgb(241, 242, 243); display: block; z-index: 1; position: relative; shape-rendering: auto;" width="3000" height="400" preserveAspectRatio="xMidYMid" viewBox="0 0 3000 400">
<g transform="translate(1500,200) scale(1,1) translate(-1500,-200)"><defs>
<linearGradient id="lg-0.7422606439253123" x1="0" x2="0" y1="0" y2="1">
  <stop stop-color="#000000" offset="0.3"></stop>
  <stop stop-color="#1b0629" offset="0.6499999999999999"></stop>
  <stop stop-color="#1b0629" offset="1"></stop>
</linearGradient>
<linearGradient id="fg-lg-0.7422606439253123" x1="0" x2="0" y1="0" y2="1">
  <stop stop-color="#000000" stop-opacity="1" offset="0.3"></stop>
  <stop stop-color="#1b0629" stop-opacity="0.66" offset="0.6499999999999999"></stop>
  <stop stop-color="#1b0629" stop-opacity="0" offset="1"></stop>
</linearGradient>
<style type="text/css">
  path { fill: none; stroke: #000000; stroke-width: 2px }
</style>
</defs>
<rect x="0" y="0" width="3000" height="400" fill="url(#lg-0.7422606439253123)"></rect><path d="M0 120 L-21000 400"></path><path d="M23.076923076923077 120 L-20653.846153846152 400"></path><path d="M46.15384615384615 120 L-20307.69230769231 400"></path><path d="M69.23076923076923 120 L-19961.53846153846 400"></path><path d="M92.3076923076923 120 L-19615.384615384617 400"></path><path d="M115.38461538461539 120 L-19269.23076923077 400"></path><path d="M138.46153846153845 120 L-18923.076923076922 400"></path><path d="M161.53846153846155 120 L-18576.923076923078 400"></path><path d="M184.6153846153846 120 L-18230.76923076923 400"></path><path d="M207.69230769230768 120 L-17884.615384615383 400"></path><path d="M230.76923076923077 120 L-17538.46153846154 400"></path><path d="M253.84615384615384 120 L-17192.30769230769 400"></path><path d="M276.9230769230769 120 L-16846.153846153844 400"></path><path d="M300 120 L-16500 400"></path><path d="M323.0769230769231 120 L-16153.846153846154 400"></path><path d="M346.15384615384613 120 L-15807.692307692309 400"></path><path d="M369.2307692307692 120 L-15461.538461538461 400"></path><path d="M392.3076923076923 120 L-15115.384615384615 400"></path><path d="M415.38461538461536 120 L-14769.23076923077 400"></path><path d="M438.46153846153845 120 L-14423.076923076922 400"></path><path d="M461.53846153846155 120 L-14076.923076923078 400"></path><path d="M484.61538461538464 120 L-13730.76923076923 400"></path><path d="M507.6923076923077 120 L-13384.615384615385 400"></path><path d="M530.7692307692307 120 L-13038.461538461539 400"></path><path d="M553.8461538461538 120 L-12692.307692307691 400"></path><path d="M576.9230769230769 120 L-12346.153846153846 400"></path><path d="M600 120 L-12000 400"></path><path d="M623.0769230769231 120 L-11653.846153846154 400"></path><path d="M646.1538461538462 120 L-11307.692307692309 400"></path><path d="M669.2307692307693 120 L-10961.538461538461 400"></path><path d="M692.3076923076923 120 L-10615.384615384615 400"></path><path d="M715.3846153846154 120 L-10269.23076923077 400"></path><path d="M738.4615384615385 120 L-9923.076923076924 400"></path><path d="M761.5384615384615 120 L-9576.923076923076 400"></path><path d="M784.6153846153846 120 L-9230.76923076923 400"></path><path d="M807.6923076923077 120 L-8884.615384615385 400"></path><path d="M830.7692307692307 120 L-8538.461538461539 400"></path><path d="M853.8461538461538 120 L-8192.307692307691 400"></path><path d="M876.9230769230769 120 L-7846.153846153846 400"></path><path d="M900 120 L-7500 400"></path><path d="M923.0769230769231 120 L-7153.846153846154 400"></path><path d="M946.1538461538462 120 L-6807.6923076923085 400"></path><path d="M969.2307692307693 120 L-6461.538461538461 400"></path><path d="M992.3076923076923 120 L-6115.384615384615 400"></path><path d="M1015.3846153846154 120 L-5769.2307692307695 400"></path><path d="M1038.4615384615386 120 L-5423.076923076924 400"></path><path d="M1061.5384615384614 120 L-5076.923076923076 400"></path><path d="M1084.6153846153845 120 L-4730.7692307692305 400"></path><path d="M1107.6923076923076 120 L-4384.615384615383 400"></path><path d="M1130.7692307692307 120 L-4038.461538461539 400"></path><path d="M1153.8461538461538 120 L-3692.3076923076915 400"></path><path d="M1176.923076923077 120 L-3346.1538461538476 400"></path><path d="M1200 120 L-3000 400"></path><path d="M1223.076923076923 120 L-2653.8461538461524 400"></path><path d="M1246.1538461538462 120 L-2307.6923076923085 400"></path><path d="M1269.2307692307693 120 L-1961.538461538461 400"></path><path d="M1292.3076923076924 120 L-1615.384615384617 400"></path><path d="M1315.3846153846155 120 L-1269.2307692307695 400"></path><path d="M1338.4615384615386 120 L-923.076923076922 400"></path><path d="M1361.5384615384614 120 L-576.923076923078 400"></path><path d="M1384.6153846153845 120 L-230.7692307692305 400"></path><path d="M1407.6923076923076 120 L115.38461538461706 400"></path><path d="M1430.7692307692307 120 L461.538461538461 400"></path><path d="M1453.8461538461538 120 L807.6923076923085 400"></path><path d="M1476.923076923077 120 L1153.8461538461524 400"></path><path d="M1500 120 L1500 400"></path><path d="M1523.076923076923 120 L1846.1538461538476 400"></path><path d="M1546.1538461538462 120 L2192.3076923076915 400"></path><path d="M1569.2307692307693 120 L2538.461538461539 400"></path><path d="M1592.3076923076924 120 L2884.615384615383 400"></path><path d="M1615.3846153846155 120 L3230.7692307692305 400"></path><path d="M1638.4615384615386 120 L3576.923076923078 400"></path><path d="M1661.5384615384614 120 L3923.076923076922 400"></path><path d="M1684.6153846153845 120 L4269.2307692307695 400"></path><path d="M1707.6923076923076 120 L4615.384615384617 400"></path><path d="M1730.7692307692307 120 L4961.538461538461 400"></path><path d="M1753.8461538461538 120 L5307.6923076923085 400"></path><path d="M1776.923076923077 120 L5653.846153846152 400"></path><path d="M1800 120 L6000 400"></path><path d="M1823.076923076923 120 L6346.153846153848 400"></path><path d="M1846.1538461538462 120 L6692.3076923076915 400"></path><path d="M1869.2307692307693 120 L7038.461538461539 400"></path><path d="M1892.3076923076924 120 L7384.615384615383 400"></path><path d="M1915.3846153846155 120 L7730.7692307692305 400"></path><path d="M1938.4615384615386 120 L8076.923076923078 400"></path><path d="M1961.5384615384614 120 L8423.076923076922 400"></path><path d="M1984.6153846153845 120 L8769.23076923077 400"></path><path d="M2007.6923076923076 120 L9115.384615384617 400"></path><path d="M2030.7692307692307 120 L9461.538461538461 400"></path><path d="M2053.846153846154 120 L9807.692307692309 400"></path><path d="M2076.923076923077 120 L10153.846153846152 400"></path><path d="M2100 120 L10500 400"></path><path d="M2123.076923076923 120 L10846.153846153848 400"></path><path d="M2146.153846153846 120 L11192.307692307691 400"></path><path d="M2169.230769230769 120 L11538.461538461539 400"></path><path d="M2192.3076923076924 120 L11884.615384615383 400"></path><path d="M2215.3846153846152 120 L12230.769230769234 400"></path><path d="M2238.4615384615386 120 L12576.923076923078 400"></path><path d="M2261.5384615384614 120 L12923.076923076922 400"></path><path d="M2284.6153846153848 120 L13269.230769230766 400"></path><path d="M2307.6923076923076 120 L13615.384615384617 400"></path><path d="M2330.769230769231 120 L13961.538461538461 400"></path><path d="M2353.846153846154 120 L14307.692307692305 400"></path><path d="M2376.923076923077 120 L14653.846153846156 400"></path><path d="M2400 120 L15000 400"></path><path d="M2423.076923076923 120 L15346.153846153844 400"></path><path d="M2446.153846153846 120 L15692.307692307695 400"></path><path d="M2469.230769230769 120 L16038.461538461539 400"></path><path d="M2492.3076923076924 120 L16384.615384615383 400"></path><path d="M2515.3846153846152 120 L16730.769230769234 400"></path><path d="M2538.4615384615386 120 L17076.923076923078 400"></path><path d="M2561.5384615384614 120 L17423.076923076922 400"></path><path d="M2584.6153846153848 120 L17769.230769230766 400"></path><path d="M2607.6923076923076 120 L18115.384615384617 400"></path><path d="M2630.769230769231 120 L18461.53846153846 400"></path><path d="M2653.846153846154 120 L18807.692307692305 400"></path><path d="M2676.923076923077 120 L19153.846153846156 400"></path><path d="M2700 120 L19500 400"></path><path d="M2723.076923076923 120 L19846.153846153844 400"></path><path d="M2746.153846153846 120 L20192.307692307695 400"></path><path d="M2769.230769230769 120 L20538.46153846154 400"></path><path d="M2792.3076923076924 120 L20884.615384615383 400"></path><path d="M2815.3846153846152 120 L21230.769230769234 400"></path><path d="M2838.4615384615386 120 L21576.923076923078 400"></path><path d="M2861.5384615384614 120 L21923.076923076922 400"></path><path d="M2884.6153846153848 120 L22269.230769230766 400"></path><path d="M2907.6923076923076 120 L22615.384615384617 400"></path><path d="M2930.769230769231 120 L22961.53846153846 400"></path><path d="M2953.846153846154 120 L23307.692307692305 400"></path><path d="M2976.923076923077 120 L23653.846153846156 400"></path><path d="M3000 120 L24000 400"></path><g>
<path d="M0 120 L3000 120"></path>
<animateTransform attributeName="transform" type="translate" repeatCount="indefinite" calcMode="linear" keyTimes="0;1" values="0 0;0 2.1207100591715977" begin="0s" dur="0.8333333333333334s"></animateTransform>

</g><g>
<path d="M0 122.1207100591716 L3000 122.1207100591716"></path>
<animateTransform attributeName="transform" type="translate" repeatCount="indefinite" calcMode="linear" keyTimes="0;1" values="0 0;0 4.2414201183431945" begin="0s" dur="0.8333333333333334s"></animateTransform>

</g><g>
<path d="M0 126.3621301775148 L3000 126.3621301775148"></path>
<animateTransform attributeName="transform" type="translate" repeatCount="indefinite" calcMode="linear" keyTimes="0;1" values="0 0;0 6.362130177514793" begin="0s" dur="0.8333333333333334s"></animateTransform>

</g><g>
<path d="M0 132.7242603550296 L3000 132.7242603550296"></path>
<animateTransform attributeName="transform" type="translate" repeatCount="indefinite" calcMode="linear" keyTimes="0;1" values="0 0;0 8.48284023668639" begin="0s" dur="0.8333333333333334s"></animateTransform>

</g><g>
<path d="M0 141.207100591716 L3000 141.207100591716"></path>
<animateTransform attributeName="transform" type="translate" repeatCount="indefinite" calcMode="linear" keyTimes="0;1" values="0 0;0 10.603550295857989" begin="0s" dur="0.8333333333333334s"></animateTransform>

</g><g>
<path d="M0 151.81065088757398 L3000 151.81065088757398"></path>
<animateTransform attributeName="transform" type="translate" repeatCount="indefinite" calcMode="linear" keyTimes="0;1" values="0 0;0 12.724260355029587" begin="0s" dur="0.8333333333333334s"></animateTransform>

</g><g>
<path d="M0 164.53491124260358 L3000 164.53491124260358"></path>
<animateTransform attributeName="transform" type="translate" repeatCount="indefinite" calcMode="linear" keyTimes="0;1" values="0 0;0 14.844970414201184" begin="0s" dur="0.8333333333333334s"></animateTransform>

</g><g>
<path d="M0 179.37988165680477 L3000 179.37988165680477"></path>
<animateTransform attributeName="transform" type="translate" repeatCount="indefinite" calcMode="linear" keyTimes="0;1" values="0 0;0 16.96568047337278" begin="0s" dur="0.8333333333333334s"></animateTransform>

</g><g>
<path d="M0 196.34556213017754 L3000 196.34556213017754"></path>
<animateTransform attributeName="transform" type="translate" repeatCount="indefinite" calcMode="linear" keyTimes="0;1" values="0 0;0 19.086390532544378" begin="0s" dur="0.8333333333333334s"></animateTransform>

</g><g>
<path d="M0 215.43195266272193 L3000 215.43195266272193"></path>
<animateTransform attributeName="transform" type="translate" repeatCount="indefinite" calcMode="linear" keyTimes="0;1" values="0 0;0 21.207100591715975" begin="0s" dur="0.8333333333333334s"></animateTransform>

</g><g>
<path d="M0 236.6390532544379 L3000 236.6390532544379"></path>
<animateTransform attributeName="transform" type="translate" repeatCount="indefinite" calcMode="linear" keyTimes="0;1" values="0 0;0 23.32781065088757" begin="0s" dur="0.8333333333333334s"></animateTransform>

</g><g>
<path d="M0 259.96686390532545 L3000 259.96686390532545"></path>
<animateTransform attributeName="transform" type="translate" repeatCount="indefinite" calcMode="linear" keyTimes="0;1" values="0 0;0 25.448520710059167" begin="0s" dur="0.8333333333333334s"></animateTransform>

</g><g>
<path d="M0 285.4153846153846 L3000 285.4153846153846"></path>
<animateTransform attributeName="transform" type="translate" repeatCount="indefinite" calcMode="linear" keyTimes="0;1" values="0 0;0 27.569230769230764" begin="0s" dur="0.8333333333333334s"></animateTransform>

</g><g>
<path d="M0 312.9846153846154 L3000 312.9846153846154"></path>
<animateTransform attributeName="transform" type="translate" repeatCount="indefinite" calcMode="linear" keyTimes="0;1" values="0 0;0 29.68994082840236" begin="0s" dur="0.8333333333333334s"></animateTransform>

</g><g>
<path d="M0 342.67455621301775 L3000 342.67455621301775"></path>
<animateTransform attributeName="transform" type="translate" repeatCount="indefinite" calcMode="linear" keyTimes="0;1" values="0 0;0 31.81065088757396" begin="0s" dur="0.8333333333333334s"></animateTransform>

</g><g>
<path d="M0 374.4852071005917 L3000 374.4852071005917"></path>
<animateTransform attributeName="transform" type="translate" repeatCount="indefinite" calcMode="linear" keyTimes="0;1" values="0 0;0 33.931360946745556" begin="0s" dur="0.8333333333333334s"></animateTransform>

</g><g>
<path d="M0 408.41656804733725 L3000 408.41656804733725"></path>
<animateTransform attributeName="transform" type="translate" repeatCount="indefinite" calcMode="linear" keyTimes="0;1" values="0 0;0 36.052071005917156" begin="0s" dur="0.8333333333333334s"></animateTransform>

</g><rect x="0" y="0" width="3000" height="400" fill="url(#fg-lg-0.7422606439253123)"></rect></g>
</svg>
